<svg xmlns="http://www.w3.org/2000/svg" xml:space="preserve" style="enable-background:new 0 0 64 64" viewBox="0 0 64 64"><linearGradient id="a" x1="30" x2="30" y1="30.875" y2="38.891" gradientUnits="userSpaceOnUse" spreadMethod="reflect"><stop offset="0" style="stop-color:#6dc7ff"/><stop offset="1" style="stop-color:#e6abff"/></linearGradient><circle cx="30.001" cy="35" r="3" style="fill:url(#a)"/><linearGradient id="b" x1="42.001" x2="42.001" y1="30.875" y2="38.891" gradientUnits="userSpaceOnUse" spreadMethod="reflect"><stop offset="0" style="stop-color:#6dc7ff"/><stop offset="1" style="stop-color:#e6abff"/></linearGradient><circle cx="42.001" cy="35" r="3" style="fill:url(#b)"/><linearGradient id="c" x1="36" x2="36" y1="38.125" y2="44.701" gradientUnits="userSpaceOnUse" spreadMethod="reflect"><stop offset="0" style="stop-color:#6dc7ff"/><stop offset="1" style="stop-color:#e6abff"/></linearGradient><path d="M36.001 44c-2.209 0-4-1.75-4-4a1 1 0 0 1 1-1h6a1 1 0 0 1 1 1 4 4 0 0 1-4 4z" style="fill:url(#c)"/><linearGradient id="d" x1="44.868" x2="44.868" y1="4.667" y2="59.505" gradientUnits="userSpaceOnUse" spreadMethod="reflect"><stop offset="0" style="stop-color:#1a6dff"/><stop offset="1" style="stop-color:#c822ff"/></linearGradient><path d="m39.2 16.319-.398 1.961c4.63.94 8.564 4.269 10.267 8.686l1.866-.719c-1.946-5.049-6.443-8.852-11.735-9.928z" style="fill:url(#d)"/><linearGradient id="e" x1="32" x2="32" y1="4.667" y2="59.505" gradientUnits="userSpaceOnUse" spreadMethod="reflect"><stop offset="0" style="stop-color:#1a6dff"/><stop offset="1" style="stop-color:#c822ff"/></linearGradient><path d="M36 12c-.432 0-.862.018-1.289.045-.103.007-.206.017-.309.025a19.558 19.558 0 0 0-1.294.144 19.32 19.32 0 0 0-1.224.214l-.03.006a19.76 19.76 0 0 0-2.542.719c-.089.031-.177.065-.265.098a19.727 19.727 0 0 0-1.246.51c-.074.033-.149.062-.222.096l.004.009a19.83 19.83 0 0 0-1.073.534l-3.823-6.835C22.141 6.584 21.136 6 20.001 6s-2.14.584-2.687 1.563l-8.93 15.969a2.95 2.95 0 0 0 .03 2.959A3.042 3.042 0 0 0 11.07 28H16v25c0 2.757 2.243 5 5 5s5-2.243 5-5v-.5c0-1.379 1.122-2.5 2.5-2.5s2.5 1.121 2.5 2.5v.5c0 2.757 2.243 5 5 5s5-2.243 5-5v-.5c0-1.379 1.122-2.5 2.5-2.5s2.5 1.121 2.5 2.5v.5c0 2.757 2.243 5 5 5s5-2.243 5-5V32c0-11.028-8.972-20-20-20zM10.138 25.479a.962.962 0 0 1-.01-.971l8.93-15.969c.19-.338.542-.539.943-.539s.753.201.942.539l8.93 15.969a.96.96 0 0 1-.01.971c-.192.326-.54.521-.932.521H11.07c-.392 0-.74-.195-.932-.521zM54 53c0 1.654-1.346 3-3 3s-3-1.346-3-3v-.5c0-2.481-2.019-4.5-4.5-4.5S39 50.019 39 52.5v.5c0 1.654-1.346 3-3 3s-3-1.346-3-3v-.5c0-2.481-2.019-4.5-4.5-4.5S24 50.019 24 52.5v.5c0 1.654-1.346 3-3 3s-3-1.346-3-3V28h10.931a3.044 3.044 0 0 0 2.657-1.51 2.95 2.95 0 0 0 .03-2.959l-4.132-7.389a17.943 17.943 0 0 1 2.602-1.141c.141-.049.283-.091.425-.137.436-.14.876-.262 1.32-.368.128-.031.255-.067.383-.095.53-.114 1.066-.198 1.607-.262.152-.019.305-.033.458-.048C34.85 14.038 35.421 14 36 14c9.925 0 18 8.075 18 18v21z" style="fill:url(#e)"/><linearGradient id="f" x1="20" x2="20" y1="4.667" y2="59.505" gradientUnits="userSpaceOnUse" spreadMethod="reflect"><stop offset="0" style="stop-color:#1a6dff"/><stop offset="1" style="stop-color:#c822ff"/></linearGradient><path d="M19 22h2v2h-2z" style="fill:url(#f)"/><linearGradient id="g" x1="20" x2="20" y1="4.667" y2="59.505" gradientUnits="userSpaceOnUse" spreadMethod="reflect"><stop offset="0" style="stop-color:#1a6dff"/><stop offset="1" style="stop-color:#c822ff"/></linearGradient><path d="M19 12h2v8h-2z" style="fill:url(#g)"/></svg>