<svg xmlns="http://www.w3.org/2000/svg" width="32" height="32" viewBox="0 0 100 100" ><path d="M50 7C26.264 7 7 26.264 7 50c0 23.737 19.264 43 43 43a1 1 0 1 0 0-2C27.344 91 9 72.656 9 50 9 27.345 27.344 9 50 9s41 18.345 41 41c0 11.213-4.494 21.35-11.781 28.75l.375-7.094a1 1 0 0 0-1.063-1.062 1 1 0 0 0-.937.969l-.5 9.843a1 1 0 0 0 1.281 1l10.375-3a1 1 0 1 0-.563-1.906l-6.906 2C88.545 71.8 93 61.417 93 50 93 26.264 73.736 7 50 7Zm-6.469 15.031a1 1 0 0 0-.906 1v5.032a23.61 23.61 0 0 0-3 1.218l-3.563-3.531a1 1 0 0 0-1.406 0l-9 8.969a1 1 0 0 0 0 1.406l3.563 3.563c-.48.963-.906 1.939-1.25 2.968h-5.063a1 1 0 0 0-1 1v12.688a1 1 0 0 0 1 1h5.063c.343 1.022.772 2.01 1.25 2.968l-3.563 3.532a1 1 0 0 0 0 1.406l9 8.969a1 1 0 0 0 1.407 0l3.562-3.531c.962.474 1.973.878 3 1.218v5.031a1 1 0 0 0 1 1h12.75a1 1 0 0 0 1-1v-5.03a23.614 23.614 0 0 0 3-1.22l.156.157c.378.375.872.873 1.375 1.375 1.007 1.003 2.032 2 2.032 2a1 1 0 0 0 1.406 0l9-8.969a1 1 0 0 0 0-1.406s-.992-1-2-2c-.505-.5-1.03-1-1.406-1.375l-.157-.157c.478-.957.907-1.946 1.25-2.968h5.063a1 1 0 0 0 1-1V43.656a1 1 0 0 0-1-1H72.03a22.952 22.952 0 0 0-1.25-3l.156-.156c.377-.376.903-.875 1.407-1.375 1.008-1 2-2 2-2a1 1 0 0 0 0-1.406l-9-8.969a1 1 0 0 0-1.406 0s-1.026.996-2.032 2c-.503.502-.997 1-1.375 1.375-.071.071-.094.126-.156.188a23.597 23.597 0 0 0-3-1.25V23.03a1 1 0 0 0-1-1h-12.75a1 1 0 0 0-.094 0zm1.094 2h10.75v4.688a1 1 0 0 0 .719.968c1.407.418 2.77.979 4.031 1.657h.969l.093-.063c.039-.028.052-.053.063-.062.021-.018.054-.024.063-.032l.03-.03c.036-.034.069-.101.126-.157.113-.112.279-.249.468-.438.38-.377.903-.903 1.407-1.406l1.312-1.312 7.563 7.593c-.382.378-.635.64-1.281 1.282-.505.5-1.028.996-1.407 1.375-.19.189-.325.355-.437.468-.056.057-.122.09-.156.126-.018.017-.015.044-.032.062-.008.009-.012.01-.031.031-.01.012-.033.022-.063.063-.014.02-.062.125-.062.125l-.063.843a1 1 0 0 0 .063.094 21.367 21.367 0 0 1 1.656 4.032 1 1 0 0 0 .969.718h4.719v10.688h-4.719a1 1 0 0 0-.969.687 21.37 21.37 0 0 1-1.656 4.032v.968s.048.075.063.094c.028.038.053.052.062.063.018.02.023.054.031.062l.031.031c.034.035.1.07.157.125.112.113.248.28.437.469.38.378.902.874 1.406 1.375.647.642.9.903 1.282 1.281l-7.563 7.594c-.375-.375-.651-.654-1.312-1.313-.504-.501-1.027-.997-1.407-1.374-.19-.189-.324-.358-.437-.47-.056-.055-.123-.092-.156-.124-.017-.016-.018-.049-.032-.063-.006-.01-.017.012-.03 0a.12.12 0 0 0-.032-.031l-.063-.063-.593-.187a1 1 0 0 0-.469.125 21.427 21.427 0 0 1-4.031 1.656 1 1 0 0 0-.719.969v4.688h-10.75V71.25a1 1 0 0 0-.719-.969 21.426 21.426 0 0 1-4.031-1.656 1 1 0 0 0-1.188.188l-3.312 3.312-7.594-7.563 3.313-3.312a1 1 0 0 0 .156-1.188 21.368 21.368 0 0 1-1.656-4.03 1 1 0 0 0-.969-.688h-4.719V44.656h4.719a1 1 0 0 0 .969-.718c.42-1.4.975-2.778 1.656-4.032a1 1 0 0 0-.156-1.187l-3.313-3.313 7.563-7.562 3.343 3.343a1 1 0 0 0 1.188.157 21.417 21.417 0 0 1 4.031-1.657 1 1 0 0 0 .719-.968ZM50 37.875c-6.698 0-12.156 5.453-12.156 12.125S43.302 62.094 50 62.094 62.156 56.672 62.156 50 56.698 37.875 50 37.875zm20.531 1.188h.031v.062l-.03-.063zM50 39.874c5.622 0 10.156 4.54 10.156 10.125 0 5.586-4.534 10.094-10.156 10.094-5.622 0-10.156-4.508-10.156-10.094 0-5.586 4.534-10.125 10.156-10.125Z" style="color:#fff;font-style:normal;font-variant:normal;font-weight:400;font-stretch:normal;font-size:medium;line-height:normal;font-family:Sans;-inkscape-font-specification:Sans;text-indent:0;text-align:start;text-decoration:none;text-decoration-line:none;letter-spacing:normal;word-spacing:normal;text-transform:none;writing-mode:lr-tb;direction:ltr;baseline-shift:baseline;text-anchor:start;display:inline;overflow:visible;visibility:visible;opacity:1;fill:#fff;fill-opacity:1;stroke:none;stroke-width:2;marker:none;enable-background:accumulate" transform="matrix(1.10164 0 0 1.10164 -4.711 -5.452)"/></svg>