<svg viewBox="0 0 39 44" width="39" height="44" fill="none" xmlns="http://www.w3.org/2000/svg"><g clipPath="url(#c)"><path d="M19.257 12.117a9.859 9.859 0 0 0-9.874 9.874 9.859 9.859 0 0 0 9.874 9.875 9.859 9.859 0 0 0 9.874-9.875 9.859 9.859 0 0 0-9.874-9.874Zm0 16.294c-3.532 0-6.42-2.88-6.42-6.42s2.88-6.42 6.42-6.42 6.42 2.88 6.42 6.42-2.888 6.42-6.42 6.42Zm12.581-16.698a2.298 2.298 0 0 1-2.303 2.303 2.303 2.303 0 1 1 2.303-2.303Zm6.54 2.338c-.146-3.085-.85-5.818-3.11-8.07-2.252-2.251-4.985-2.956-8.07-3.11-3.18-.181-12.71-.181-15.89 0-3.077.145-5.81.85-8.07 3.102-2.26 2.251-2.956 4.984-3.11 8.07-.18 3.179-.18 12.71 0 15.889.146 3.085.85 5.818 3.11 8.07 2.26 2.251 4.985 2.956 8.07 3.11 3.18.18 12.71.18 15.89 0 3.085-.146 5.818-.85 8.07-3.11 2.25-2.252 2.956-4.985 3.11-8.07.18-3.18.18-12.702 0-15.881ZM34.27 33.344a6.5 6.5 0 0 1-3.66 3.66c-2.536 1.006-8.551.774-11.353.774-2.801 0-8.826.224-11.352-.773a6.5 6.5 0 0 1-3.661-3.661c-1.006-2.536-.773-8.551-.773-11.353 0-2.801-.224-8.825.773-11.352a6.5 6.5 0 0 1 3.66-3.661c2.536-1.005 8.552-.773 11.353-.773 2.802 0 8.826-.224 11.353.773a6.5 6.5 0 0 1 3.66 3.661c1.006 2.535.774 8.55.774 11.352 0 2.802.232 8.826-.773 11.353Z" fill="#fff"></path></g><defs><clipPath id="c"><path fill="#fff" d="M0 0h38.5v44H0z"></path></clipPath></defs></svg>